<?xml version="1.0"?>
<svg xmlns="http://www.w3.org/2000/svg" viewBox="0 0 16 16">
    <path style="line-height:normal;text-indent:0;text-align:start;text-decoration-line:none;text-decoration-style:solid;text-decoration-color:#000;text-transform:none;block-progression:tb;isolation:auto;mix-blend-mode:normal" d="M 2.5 1 C 1.6774686 1 1 1.6774686 1 2.5 L 1 4.5 C 1 4.8840922 1.1513388 5.2333827 1.3925781 5.5 C 1.1513388 5.7666173 1 6.1159078 1 6.5 L 1 8.5 C 1 8.8840922 1.1513388 9.2333827 1.3925781 9.5 C 1.1513388 9.7666173 1 10.115908 1 10.5 L 1 12.5 C 1 13.322531 1.6774686 14 2.5 14 L 12.5 14 C 13.322531 14 14 13.322531 14 12.5 L 14 10.5 C 14 10.115908 13.848661 9.7666173 13.607422 9.5 C 13.848661 9.2333827 14 8.8840922 14 8.5 L 14 6.5 C 14 6.1159078 13.848661 5.7666173 13.607422 5.5 C 13.848661 5.2333827 14 4.8840922 14 4.5 L 14 2.5 C 14 1.6774686 13.322531 1 12.5 1 L 2.5 1 z M 2.5 2 L 12.5 2 C 12.781469 2 13 2.2185314 13 2.5 L 13 4.5 C 13 4.7814686 12.781469 5 12.5 5 L 2.5 5 C 2.2185314 5 2 4.7814686 2 4.5 L 2 2.5 C 2 2.2185314 2.2185314 2 2.5 2 z M 4 3 L 4 4 L 9 4 L 9 3 L 4 3 z M 11.5 3 A 0.5 0.5 0 0 0 11 3.5 A 0.5 0.5 0 0 0 11.5 4 A 0.5 0.5 0 0 0 12 3.5 A 0.5 0.5 0 0 0 11.5 3 z M 2.5 6 L 12.5 6 C 12.781469 6 13 6.2185314 13 6.5 L 13 8.5 C 13 8.7814686 12.781469 9 12.5 9 L 2.5 9 C 2.2185314 9 2 8.7814686 2 8.5 L 2 6.5 C 2 6.2185314 2.2185314 6 2.5 6 z M 4 7 L 4 8 L 9 8 L 9 7 L 4 7 z M 11.5 7 A 0.5 0.5 0 0 0 11 7.5 A 0.5 0.5 0 0 0 11.5 8 A 0.5 0.5 0 0 0 12 7.5 A 0.5 0.5 0 0 0 11.5 7 z M 2.5 10 L 12.5 10 C 12.781469 10 13 10.218531 13 10.5 L 13 12.5 C 13 12.781469 12.781469 13 12.5 13 L 2.5 13 C 2.2185314 13 2 12.781469 2 12.5 L 2 10.5 C 2 10.218531 2.2185314 10 2.5 10 z M 4 11 L 4 12 L 9 12 L 9 11 L 4 11 z M 11.5 11 A 0.5 0.5 0 0 0 11 11.5 A 0.5 0.5 0 0 0 11.5 12 A 0.5 0.5 0 0 0 12 11.5 A 0.5 0.5 0 0 0 11.5 11 z"/>
</svg>
