<?xml version="1.0" ?><svg data-name="Layer 47" id="Layer_47" viewBox="0 0 64 64" xmlns="http://www.w3.org/2000/svg"><defs><style>
      .cls-1 {
        fill: none;
        stroke: #000;
        stroke-linecap: round;
        stroke-linejoin: round;
        stroke-width: 2px;
      }
    </style></defs><title/><rect class="cls-1" height="47.33" rx="10.9" ry="10.9" transform="translate(64 64) rotate(-180)" width="59.77" x="2.11" y="8.33"/><g><path class="cls-1" d="M39.14,18.53v7.85a1.4,1.4,0,0,0,2.35,1l4.25-3.89a1.4,1.4,0,0,0,0-2.06l-4.25-4A1.4,1.4,0,0,0,39.14,18.53Z"/><path class="cls-1" d="M24.81,45.47V37.61a1.4,1.4,0,0,0-2.35-1l-4.25,3.89a1.4,1.4,0,0,0,0,2.06l4.25,4A1.4,1.4,0,0,0,24.81,45.47Z"/><path class="cls-1" d="M46.51,31.95V36A5.51,5.51,0,0,1,41,41.55H24.81"/><path class="cls-1" d="M17.49,31.95V28A5.51,5.51,0,0,1,23,22.45H39.14"/></g></svg>