<?xml version="1.0"?>
<svg xmlns="http://www.w3.org/2000/svg" viewBox="0 0 16 16">
    <path style="line-height:normal;text-indent:0;text-align:start;text-decoration-line:none;text-decoration-style:solid;text-decoration-color:#000;text-transform:none;block-progression:tb;isolation:auto;mix-blend-mode:normal" d="M 1.5 1 A 0.50005 0.50005 0 0 0 1 1.5 L 1 13.5 A 0.50005 0.50005 0 0 0 1.5 14 L 13.5 14 A 0.50005 0.50005 0 0 0 14 13.5 L 14 1.5 A 0.50005 0.50005 0 0 0 13.5 1 L 1.5 1 z M 2 2 L 13 2 L 13 13 L 2 13 L 2 2 z M 5 3 L 3 4.5 L 5 6 L 5 5 L 7 5 L 7 4 L 5 4 L 5 3 z M 10 5 L 10 6 L 8 6 L 8 7 L 10 7 L 10 8 L 12 6.5 L 10 5 z M 5 7 L 3 8.5 L 5 10 L 5 9 L 7 9 L 7 8 L 5 8 L 5 7 z M 10 9 L 10 10 L 8 10 L 8 11 L 10 11 L 10 12 L 12 10.5 L 10 9 z"/>
</svg>
